# xmcd CD database file
#
# Track frame offsets:
#	150
#	74888
#	152828
#
# Disc length: 3028 seconds
#
# Revision: 1
# Processed by: cddbd v1.5.2PL0 Copyright (c) Steve Scherf et al.
# Submitted via: CDex 1.51
#
DISCID=280bd203
DTITLE=Miller Petrucciani Lagrène White Garrett - Dreyfus Night In Paris
DYEAR=1994
DGENRE=Jazz
TTITLE0=Tutu
TTITLE1=The King Is Gone
TTITLE2=Looking Up
EXTD=YEAR: 1994
EXTT0=
EXTT1=
EXTT2=
PLAYORDER=
